# xmcd
#
# Track frame offsets:
#	150
#	14184
#	26593
#	38921
#	55480
#	70238
#	81450
#	92858
#	109462
#	119610
#
# Disc length: 1617 seconds
#
# Revision: 13
# Processed by: cddbd v1.5.2PL0 Copyright (c) Steve Scherf et al.
# Submitted via: Jack! The Knife 20 Magnifico
#
DISCID=96064f0a
DTITLE=Bathory - Bathory
DYEAR=1984
DGENRE=Black Metal
TTITLE0=Storm Of Damnation (Intro)
TTITLE1=Hades
TTITLE2=Reaper
TTITLE3=Necromansy
TTITLE4=Sacrifice
TTITLE5=In Conspiracy With Satan
TTITLE6=Armageddon
TTITLE7=Raise The Dead
TTITLE8=War
TTITLE9=Outro
EXTD=Boss and Quorthon
EXTT0=Quorthon
EXTT1=Quorthon
EXTT2=Quorthon
EXTT3=Quorthon
EXTT4=Quorthon
EXTT5=Quorthon
EXTT6=Quorthon
EXTT7=Quorthon
EXTT8=Quorthon
EXTT9=Quorthon
PLAYORDER=
